<?xml version="1.0" encoding="iso-8859-1"?>
<!-- Generator: Adobe Illustrator 19.2.1, SVG Export Plug-In . SVG Version: 6.00 Build 0)  -->
<svg version="1.1" id="&#x30EC;&#x30A4;&#x30E4;&#x30FC;_1"
	 xmlns="http://www.w3.org/2000/svg" xmlns:xlink="http://www.w3.org/1999/xlink" x="0px" y="0px" viewBox="0 0 85.024 64.575"
	 style="enable-background:new 0 0 85.024 64.575;" xml:space="preserve">
<g>
	<g>
		<g>
			<g>
				<g>
					<g>
						<path style="fill:#4D4D4D;" d="M16.263,38.057v-8.242c0-5.781,4.656-9.308,10.398-9.308s10.398,3.528,10.398,9.308v8.242
							H16.263z"/>
					</g>
				</g>
			</g>
			<ellipse style="fill:#4D4D4D;" cx="26.878" cy="11.432" rx="7.671" ry="7.722"/>
		</g>
		<g>
			<g>
				<g>
					<g>
						<path style="fill:#4D4D4D;" d="M41.293,38.057v-8.242c0-5.781,4.656-9.308,10.398-9.308s10.398,3.528,10.398,9.308v8.242
							H41.293z"/>
					</g>
				</g>
			</g>
			<ellipse style="fill:#4D4D4D;" cx="51.908" cy="11.432" rx="7.671" ry="7.722"/>
		</g>
	</g>
	<g>
		
			<ellipse transform="matrix(0.9977 -0.068 0.068 0.9977 -1.8216 0.7198)" style="fill:#E71F19;" cx="9.661" cy="27.113" rx="5.713" ry="5.713"/>
		<g>
			
				<ellipse transform="matrix(0.9977 -0.068 0.068 0.9977 -1.245 0.6608)" style="fill:#E71F19;" cx="9.082" cy="18.615" rx="1.163" ry="1.163"/>
			<g>
				
					<rect x="9.503" y="18.175" transform="matrix(0.9977 -0.068 0.068 0.9977 -1.8216 0.7198)" style="fill:#E71F19;stroke:#E71F19;stroke-width:0.5;stroke-miterlimit:10;" width="0.316" height="17.876"/>
				
					<ellipse transform="matrix(0.9977 -0.068 0.068 0.9977 -2.3982 0.7789)" style="fill:#E71F19;" cx="10.24" cy="35.611" rx="1.163" ry="1.163"/>
			</g>
		</g>
		<g>
			
				<ellipse transform="matrix(0.6574 -0.7536 0.7536 0.6574 -10.366 18.5898)" style="fill:#E71F19;" cx="15.26" cy="20.694" rx="1.163" ry="1.163"/>
			<g>
				
					<rect x="0.723" y="26.955" transform="matrix(0.6574 -0.7536 0.7536 0.6574 -17.1212 16.5696)" style="fill:#E71F19;stroke:#E71F19;stroke-width:0.5;stroke-miterlimit:10;" width="17.876" height="0.316"/>
				
					<ellipse transform="matrix(0.6574 -0.7536 0.7536 0.6574 -23.8763 14.5493)" style="fill:#E71F19;" cx="4.062" cy="33.531" rx="1.163" ry="1.163"/>
			</g>
		</g>
		<g>
			
				<ellipse transform="matrix(0.6574 -0.7536 0.7536 0.6574 -15.1009 9.8144)" style="fill:#E71F19;" cx="3.242" cy="21.514" rx="1.163" ry="1.163"/>
			<g>
				
					<rect x="9.503" y="18.175" transform="matrix(0.6574 -0.7536 0.7536 0.6574 -17.1212 16.5696)" style="fill:#E71F19;stroke:#E71F19;stroke-width:0.5;stroke-miterlimit:10;" width="0.316" height="17.876"/>
				
					<ellipse transform="matrix(0.6574 -0.7536 0.7536 0.6574 -19.1414 23.3247)" style="fill:#E71F19;" cx="16.079" cy="32.712" rx="1.163" ry="1.163"/>
			</g>
		</g>
		<g>
			
				<ellipse transform="matrix(0.9977 -0.068 0.068 0.9977 -1.7625 1.2964)" style="fill:#E71F19;" cx="18.159" cy="26.534" rx="1.163" ry="1.163"/>
			<g>
				
					<rect x="0.723" y="26.955" transform="matrix(0.9977 -0.068 0.068 0.9977 -1.8216 0.7198)" style="fill:#E71F19;stroke:#E71F19;stroke-width:0.5;stroke-miterlimit:10;" width="17.876" height="0.316"/>
				
					<ellipse transform="matrix(0.9977 -0.068 0.068 0.9977 -1.8807 0.1432)" style="fill:#E71F19;" cx="1.163" cy="27.692" rx="1.163" ry="1.163"/>
			</g>
		</g>
	</g>
	<g>
		<g>
			<g>
				<ellipse style="fill:#4D4D4D;" cx="14.362" cy="37.949" rx="8.671" ry="8.722"/>
				<path style="fill:#FFFFFF;" d="M14.362,30.227c4.236,0,7.671,3.457,7.671,7.722c0,4.265-3.434,7.722-7.671,7.722
					c-4.236,0-7.671-3.457-7.671-7.722C6.692,33.685,10.126,30.227,14.362,30.227 M14.362,28.227c-5.332,0-9.671,4.361-9.671,9.722
					s4.338,9.722,9.671,9.722c5.333,0,9.671-4.361,9.671-9.722S19.695,28.227,14.362,28.227L14.362,28.227z"/>
			</g>
			<g>
				<g>
					<g>
						<path style="fill:#4D4D4D;" d="M3.747,64.575v-8.242c0-5.781,4.656-9.309,10.398-9.309s10.398,3.528,10.398,9.309v8.242H3.747
							z"/>
					</g>
				</g>
			</g>
		</g>
		<g>
			<g>
				<ellipse style="fill:#4D4D4D;" cx="39.393" cy="37.949" rx="8.671" ry="8.722"/>
				<path style="fill:#FFFFFF;" d="M39.393,30.227c4.236,0,7.671,3.457,7.671,7.722c0,4.265-3.434,7.722-7.671,7.722
					c-4.236,0-7.671-3.457-7.671-7.722C31.722,33.685,35.156,30.227,39.393,30.227 M39.393,28.227c-5.333,0-9.671,4.361-9.671,9.722
					s4.338,9.722,9.671,9.722c5.332,0,9.671-4.361,9.671-9.722S44.725,28.227,39.393,28.227L39.393,28.227z"/>
			</g>
			<g>
				<g>
					<g>
						<path style="fill:#4D4D4D;" d="M28.778,64.575v-8.242c0-5.781,4.656-9.309,10.398-9.309s10.398,3.528,10.398,9.309v8.242
							H28.778z"/>
					</g>
				</g>
			</g>
		</g>
		<g>
			<g>
				<path style="fill:#4D4D4D;" d="M64.423,46.672c-4.78,0-8.67-3.913-8.67-8.722s3.89-8.722,8.67-8.722
					c4.781,0,8.671,3.913,8.671,8.722S69.204,46.672,64.423,46.672z"/>
				<path style="fill:#FFFFFF;" d="M64.423,30.227c4.236,0,7.671,3.457,7.671,7.722c0,4.265-3.434,7.722-7.671,7.722
					s-7.671-3.457-7.671-7.722C56.753,33.685,60.187,30.227,64.423,30.227 M64.423,28.227c-5.332,0-9.671,4.361-9.671,9.722
					s4.338,9.722,9.671,9.722s9.671-4.361,9.671-9.722S69.756,28.227,64.423,28.227L64.423,28.227z"/>
			</g>
			<g>
				<g>
					<g>
						<path style="fill:#4D4D4D;" d="M53.808,64.575v-8.242c0-5.781,4.656-9.309,10.398-9.309c5.742,0,10.398,3.528,10.398,9.309
							v8.242H53.808z"/>
					</g>
				</g>
			</g>
		</g>
	</g>
	<g>
		
			<ellipse transform="matrix(0.131 -0.9914 0.9914 0.131 17.5567 117.2547)" style="fill:#E71F19;" cx="75.661" cy="48.613" rx="5.567" ry="5.567"/>
		<g>
			
				<ellipse transform="matrix(0.131 -0.9914 0.9914 0.131 26.66 111.1811)" style="fill:#E71F19;" cx="76.748" cy="40.384" rx="1.133" ry="1.133"/>
			<g>
				
					<rect x="66.951" y="48.459" transform="matrix(0.131 -0.9914 0.9914 0.131 17.5567 117.2547)" style="fill:#E71F19;stroke:#E71F19;stroke-width:0.5;stroke-miterlimit:10;" width="17.421" height="0.308"/>
				
					<ellipse transform="matrix(0.131 -0.9914 0.9914 0.131 8.4534 123.3282)" style="fill:#E71F19;" cx="74.574" cy="56.842" rx="1.133" ry="1.133"/>
			</g>
		</g>
		<g>
			
				<ellipse transform="matrix(0.7936 -0.6084 0.6084 0.7936 -9.53 59.0299)" style="fill:#E71F19;" cx="82.249" cy="43.563" rx="1.133" ry="1.133"/>
			<g>
				
					<rect x="66.951" y="48.459" transform="matrix(0.7936 -0.6084 0.6084 0.7936 -13.962 56.0641)" style="fill:#E71F19;stroke:#E71F19;stroke-width:0.5;stroke-miterlimit:10;" width="17.421" height="0.308"/>
				
					<ellipse transform="matrix(0.7936 -0.6084 0.6084 0.7936 -18.3941 53.0983)" style="fill:#E71F19;" cx="69.073" cy="53.663" rx="1.133" ry="1.133"/>
			</g>
		</g>
		<g>
			
				<ellipse transform="matrix(0.7936 -0.6084 0.6084 0.7936 -10.9962 51.632)" style="fill:#E71F19;" cx="70.611" cy="42.025" rx="1.133" ry="1.133"/>
			<g>
				
					<rect x="75.507" y="39.902" transform="matrix(0.7936 -0.6084 0.6084 0.7936 -13.962 56.0642)" style="fill:#E71F19;stroke:#E71F19;stroke-width:0.5;stroke-miterlimit:10;" width="0.308" height="17.421"/>
				
					<ellipse transform="matrix(0.7936 -0.6084 0.6084 0.7936 -16.9278 60.4961)" style="fill:#E71F19;" cx="80.711" cy="55.201" rx="1.133" ry="1.133"/>
			</g>
		</g>
		<g>
			
				<ellipse transform="matrix(0.131 -0.9914 0.9914 0.131 23.6303 126.3579)" style="fill:#E71F19;" cx="83.89" cy="49.7" rx="1.133" ry="1.133"/>
			<g>
				
					<rect x="75.507" y="39.902" transform="matrix(0.131 -0.9914 0.9914 0.131 17.5567 117.2547)" style="fill:#E71F19;stroke:#E71F19;stroke-width:0.5;stroke-miterlimit:10;" width="0.308" height="17.421"/>
				
					<ellipse transform="matrix(0.131 -0.9914 0.9914 0.131 11.4831 108.1514)" style="fill:#E71F19;" cx="67.432" cy="47.526" rx="1.133" ry="1.133"/>
			</g>
		</g>
	</g>
	<g>
		
			<ellipse transform="matrix(0.131 -0.9914 0.9914 0.131 32.0227 50.0076)" style="fill:#E71F19;" cx="44.536" cy="6.738" rx="4.006" ry="4.006"/>
		<g>
			
				<ellipse transform="matrix(0.131 -0.9914 0.9914 0.131 38.5738 45.6368)" style="fill:#E71F19;" cx="45.318" cy="0.816" rx="0.816" ry="0.816"/>
			<g>
				
					<rect x="38.268" y="6.627" transform="matrix(0.131 -0.9914 0.9914 0.131 32.0228 50.0076)" style="fill:#E71F19;stroke:#E71F19;stroke-width:0.5;stroke-miterlimit:10;" width="12.537" height="0.221"/>
				
					<ellipse transform="matrix(0.131 -0.9914 0.9914 0.131 25.4717 54.3784)" style="fill:#E71F19;" cx="43.754" cy="12.66" rx="0.816" ry="0.816"/>
			</g>
		</g>
		<g>
			
				<ellipse transform="matrix(0.7936 -0.6084 0.6084 0.7936 8.2809 30.6203)" style="fill:#E71F19;" cx="49.277" cy="3.104" rx="0.816" ry="0.816"/>
			<g>
				
					<rect x="38.268" y="6.627" transform="matrix(0.7936 -0.6084 0.6084 0.7936 5.0915 28.486)" style="fill:#E71F19;stroke:#E71F19;stroke-width:0.5;stroke-miterlimit:10;" width="12.537" height="0.221"/>
				
					<ellipse transform="matrix(0.7936 -0.6084 0.6084 0.7936 1.902 26.3517)" style="fill:#E71F19;" cx="39.795" cy="10.372" rx="0.816" ry="0.816"/>
			</g>
		</g>
		<g>
			
				<ellipse transform="matrix(0.7936 -0.6084 0.6084 0.7936 7.2258 25.2966)" style="fill:#E71F19;" cx="40.902" cy="1.997" rx="0.816" ry="0.816"/>
			<g>
				
					<rect x="44.425" y="0.47" transform="matrix(0.7936 -0.6084 0.6084 0.7936 5.0915 28.4861)" style="fill:#E71F19;stroke:#E71F19;stroke-width:0.5;stroke-miterlimit:10;" width="0.221" height="12.537"/>
				
					<ellipse transform="matrix(0.7936 -0.6084 0.6084 0.7936 2.9571 31.6755)" style="fill:#E71F19;" cx="48.17" cy="11.479" rx="0.816" ry="0.816"/>
			</g>
		</g>
		<g>
			
				<ellipse transform="matrix(0.131 -0.9914 0.9914 0.131 36.3935 56.5587)" style="fill:#E71F19;" cx="50.458" cy="7.52" rx="0.816" ry="0.816"/>
			<g>
				
					<rect x="44.425" y="0.47" transform="matrix(0.131 -0.9914 0.9914 0.131 32.0228 50.0076)" style="fill:#E71F19;stroke:#E71F19;stroke-width:0.5;stroke-miterlimit:10;" width="0.221" height="12.537"/>
				
					<ellipse transform="matrix(0.131 -0.9914 0.9914 0.131 27.652 43.4566)" style="fill:#E71F19;" cx="38.614" cy="5.955" rx="0.816" ry="0.816"/>
			</g>
		</g>
	</g>
</g>
</svg>
