<svg xmlns="http://www.w3.org/2000/svg" viewBox="0 0 79.54 86.75"><defs><style>.cls-1{fill:#4d4d4d}</style></defs><circle cx="44.66" cy="19.74" r="7.83" class="cls-1" transform="rotate(-45.79 44.663 19.74)"/><path d="M33.4 54.87a3 3 0 00.7-.47l9.65-8.94-1.54-13.4a3 3 0 00-1-1.85A14.23 14.23 0 0038.18 26a13.51 13.51 0 00-5.23-3.36l.81-7.86 13.42-7.55a3 3 0 00-3-5.21l-16 9.14s-.76 7-1.35 12.72a8.82 8.82 0 00-.7.65l-6 6.28A24.31 24.31 0 0013.27 48c0 2.28.07 4 .08 4.06l.06.59a8 8 0 00.06.84L.22 80.61a3.87 3.87 0 107.3 2.58L19.86 58c1.1.06 5.55 0 6.48-.05l12.83 26.22a3.87 3.87 0 107.3-2.58zm3.78-14.08l.28 2.33-4.87 4.49a6.38 6.38 0 011.75-3.86z" class="cls-1"/><text fill="#4d4d4d" font-family="Arial Black" font-size="11.41" transform="translate(59.22 9.79)">♪</text><text fill="#4d4d4d" font-family="Kozuka Gothic Pr6N" font-size="9.79" transform="rotate(16.8 -40.415 240.129)">♩</text><text fill="#4d4d4d" font-family="Arial Black" font-size="8.66" transform="rotate(-15.78 159.243 -197.02)">♪</text></svg>
