<svg xmlns="http://www.w3.org/2000/svg" id="レイヤー_1" viewBox="0 0 89.86 87.73"><defs><style>.cls-1{fill:none;stroke:#4d4d4d;stroke-linecap:round;stroke-miterlimit:10;stroke-width:3px}.cls-2{fill:#4d4d4d}</style></defs><path d="M67.9 59.1a36.94 36.94 0 01-7.66 8.26M50.31 72.93A36.69 36.69 0 1173.91 47" class="cls-1"/><path d="M21.66 47.67a20.5 20.5 0 01-2.28-9.44c0-10.94 8.44-19.8 18.85-19.8a18.1 18.1 0 019.94 3" class="cls-1"/><path d="M71.93 86l-1.73 1.73-23.4-23.4-5.71.46a8.12 8.12 0 01-3.43-.79L36 62.7l-1-.78L27.07 54a2 2 0 01-.19-2.69 1.94 1.94 0 012.86-.13l7.44 7.46a1.57 1.57 0 002.21 0 1.57 1.57 0 000-2.21L32 49a2 2 0 01-.19-2.69l.36-.36a2 2 0 012.69.19l7.44 7.42a1.57 1.57 0 002.21 0 1.57 1.57 0 000-2.21l-7.46-7.44a1.94 1.94 0 01.19-2.91 2 2 0 012.69.19l7.9 7.9.78 1L50 51.76a8.12 8.12 0 01.74 3.43l-.51 5.71 23.41 23.41L71.93 86M89.86 68.14L51.75 30a2.31 2.31 0 00-3.27 0s-2 1.17-1 3.9 6.16 13.22 9.08 16.25 4.64 3.83 7.06 4.14a18.76 18.76 0 015.45 1.31c1 .4 2 .83 2.95 1.26l14.57 14.55z" class="cls-2"/></svg>
