<svg xmlns="http://www.w3.org/2000/svg" xmlns:xlink="http://www.w3.org/1999/xlink" x="0px" y="0px" width="800px" height="800px" viewBox="0 0 800 800"><path fill="none" d="M0,0h800v800H0V0z"/><path d="M401.2 14A387.8 387.8 0 0014 401.2a387.8 387.8 0 00387.3 387.3 387.8 387.8 0 00387.3-387.3A387.8 387.8 0 00401.2 13.9zm0 48.7c84.6 0 162 31.2 221.4 82.7l-59.4 59.4c-10-.4-20 3.2-27.5 10.9a35.3 35.3 0 00-10.2 26.7l-34.3 34.4c-23-16-50.4-26-80.2-27.6v-41.6a36.5 36.5 0 00-9.8-71.7 36.5 36.5 0 00-9.8 71.7v41.7c-34.5 2.5-65.9 16.4-90.3 38l-29-29a36.3 36.3 0 00-58.5-41.6 36.6 36.6 0 000 51.8 36 36 0 0045.3 4.2l28.4 28.4a153.1 153.1 0 00-38 90.4h-42.6a36.5 36.5 0 101.7 19.5h40.7a153.3 153.3 0 0027.7 80.2L237 531a36 36 0 00-32.7 32.7l-59 59a337.1 337.1 0 01-82.6-221.4A339 339 0 01401.2 62.7zm0 677.1a337 337 0 01-221.4-82.6l54-54c11.6 2.2 24-1.2 33-10.3a35.3 35.3 0 009.4-32l34.6-34.7c22.8 17 50.5 27.9 80.7 30V595a36.6 36.6 0 1019.5 0v-38.5c35.7-2 68.2-16 93.4-38.1l28.4 28.3a36 36 0 004.3 45.4 36.6 36.6 0 0051.7-51.8 36.3 36.3 0 00-41.6-6.8l-29-29a153.2 153.2 0 0038.1-93.4H594a36.5 36.5 0 101.8-19.5h-39.6c-2.2-30.1-13-57.8-30-80.6l33.3-33.5c10.2.9 20.6-2.4 28.3-10.3a36.5 36.5 0 0010.4-28.4l59-58.8a337.1 337.1 0 0182.6 221.4 339 339 0 01-338.6 338.5z"/></svg>
