<?xml version="1.0" encoding="UTF-8"?>
<svg xmlns="http://www.w3.org/2000/svg" xmlns:xlink="http://www.w3.org/1999/xlink" width="111pt" height="45pt" viewBox="0 0 111 45" version="1.1">
<g id="surface1">
<path style=" stroke:none;fill-rule:nonzero;fill:rgb(27.45098%,27.45098%,27.45098%);fill-opacity:1;" d="M 91.175781 10.992188 L 85.625 10.992188 L 85.625 10.140625 L 91.175781 10.140625 Z M 91.175781 13.183594 L 85.625 13.183594 L 85.625 12.3125 L 91.175781 12.3125 Z M 91.175781 15.375 L 85.625 15.375 L 85.625 14.488281 L 91.175781 14.488281 Z M 93.292969 8.730469 L 83.601562 8.730469 L 83.601562 16.765625 L 93.292969 16.765625 Z M 82.878906 19.859375 C 81.992188 20.730469 80.347656 21.929688 79.046875 22.675781 C 79.550781 23.007812 80.347656 23.613281 80.816406 24.050781 C 82.136719 23.199219 83.816406 21.929688 85.082031 20.78125 Z M 95.570312 19.546875 L 95.570312 17.6875 L 82.210938 17.6875 L 82.210938 10.574219 L 80.058594 10.574219 L 80.058594 19.546875 L 86.296875 19.546875 L 86.296875 24.363281 L 88.574219 24.363281 L 88.574219 19.546875 Z M 89.820312 20.902344 C 91.195312 21.839844 93.039062 23.214844 93.90625 24.066406 L 95.914062 22.78125 C 94.917969 21.929688 93.003906 20.625 91.664062 19.789062 Z M 74.507812 11.808594 L 74.507812 20.988281 L 70.492188 20.988281 L 70.492188 8.261719 L 68.234375 8.261719 L 68.234375 20.988281 L 64.273438 20.988281 L 64.273438 11.878906 L 62.066406 11.878906 L 62.066406 23.109375 L 74.507812 23.109375 L 74.507812 24.34375 L 76.765625 24.34375 L 76.765625 11.808594 Z M 59.011719 8.957031 L 43.679688 8.957031 L 43.679688 24.378906 L 45.777344 24.378906 L 45.777344 10.921875 L 53.300781 10.921875 C 53.027344 11.757812 52.539062 12.851562 52.070312 13.6875 L 49.140625 13.6875 L 50.261719 13.269531 C 50.027344 12.644531 49.539062 11.652344 49.085938 10.921875 L 47.351562 11.476562 C 47.710938 12.140625 48.109375 13.027344 48.34375 13.6875 L 46.375 13.6875 L 46.375 15.375 L 50.261719 15.375 L 50.261719 19.875 L 48.851562 19.875 L 48.851562 16.277344 L 47.027344 16.277344 L 47.027344 21.597656 L 55.578125 21.597656 L 55.578125 16.277344 L 53.660156 16.277344 L 53.660156 19.875 L 52.214844 19.875 L 52.214844 15.375 L 56.335938 15.375 L 56.335938 13.6875 L 54.078125 13.6875 C 54.527344 12.992188 55 12.140625 55.449219 11.355469 L 53.480469 10.921875 L 56.898438 10.921875 L 56.898438 22.121094 C 56.898438 22.414062 56.789062 22.519531 56.480469 22.519531 C 56.210938 22.519531 55.214844 22.535156 54.367188 22.484375 C 54.621094 22.9375 54.925781 23.703125 55.035156 24.207031 C 56.480469 24.207031 57.457031 24.1875 58.109375 23.875 C 58.777344 23.582031 59.011719 23.128906 59.011719 22.136719 Z M 59.011719 8.957031 "/>
<path style=" stroke:none;fill-rule:nonzero;fill:rgb(27.45098%,27.45098%,27.45098%);fill-opacity:1;" d="M 98.273438 32.65625 L 96.894531 32.65625 L 97.195312 32.570312 C 97.160156 32.304688 97.027344 31.894531 96.867188 31.550781 L 98.304688 31.550781 C 98.21875 31.875 98.074219 32.285156 97.972656 32.570312 Z M 98.105469 29.941406 L 99.332031 29.941406 L 99.332031 29.003906 L 98.105469 29.003906 L 98.105469 28.175781 L 97.0625 28.175781 L 97.0625 29.003906 L 95.710938 29.003906 L 95.710938 29.941406 L 97.0625 29.941406 L 97.0625 30.597656 L 95.382812 30.597656 L 95.382812 31.550781 L 96.316406 31.550781 L 95.976562 31.636719 C 96.109375 31.953125 96.230469 32.351562 96.289062 32.65625 L 95.578125 32.65625 L 95.578125 33.609375 L 97.0625 33.609375 L 97.0625 34.34375 L 95.65625 34.34375 L 95.65625 35.300781 L 97.0625 35.300781 L 97.0625 37.035156 L 98.105469 37.035156 L 98.105469 35.300781 L 99.4375 35.300781 L 99.4375 34.34375 L 98.105469 34.34375 L 98.105469 33.609375 L 99.542969 33.609375 L 99.542969 32.65625 L 98.832031 32.65625 C 98.964844 32.371094 99.105469 32 99.265625 31.648438 L 98.898438 31.550781 L 99.683594 31.550781 L 99.683594 30.597656 L 98.105469 30.597656 Z M 100.875 33.117188 C 101.109375 33.867188 101.414062 34.566406 101.78125 35.175781 C 101.519531 35.546875 101.214844 35.871094 100.875 36.148438 Z M 102.839844 32.722656 C 102.726562 33.238281 102.558594 33.746094 102.339844 34.203125 C 102.066406 33.746094 101.839844 33.25 101.667969 32.722656 Z M 103.34375 31.78125 L 103.152344 31.828125 L 100.875 31.828125 L 100.875 29.550781 L 102.757812 29.550781 L 102.757812 30.332031 C 102.757812 30.4375 102.707031 30.464844 102.566406 30.472656 C 102.425781 30.472656 101.90625 30.472656 101.441406 30.453125 C 101.574219 30.730469 101.714844 31.121094 101.761719 31.425781 C 102.453125 31.425781 102.964844 31.417969 103.324219 31.265625 C 103.691406 31.113281 103.796875 30.835938 103.796875 30.351562 L 103.796875 28.558594 L 99.851562 28.558594 L 99.851562 37.054688 L 100.875 37.054688 L 100.875 36.492188 C 101.074219 36.671875 101.273438 36.890625 101.394531 37.082031 C 101.78125 36.796875 102.121094 36.453125 102.425781 36.0625 C 102.773438 36.460938 103.164062 36.804688 103.605469 37.074219 C 103.769531 36.785156 104.089844 36.386719 104.335938 36.175781 C 103.84375 35.929688 103.410156 35.566406 103.019531 35.136719 C 103.503906 34.242188 103.835938 33.171875 104.015625 32.019531 Z M 86.617188 32.800781 C 86.816406 32.066406 86.964844 30.933594 86.984375 30.140625 L 86.191406 30.035156 C 86.144531 30.808594 86 31.875 85.804688 32.523438 Z M 90.210938 34.859375 L 90.210938 34.421875 L 93.035156 34.421875 L 93.035156 34.859375 Z M 93.035156 33.171875 L 93.035156 33.621094 L 90.210938 33.621094 L 90.210938 33.171875 Z M 94.09375 32.34375 L 89.167969 32.34375 L 89.167969 37.074219 L 90.210938 37.074219 L 90.210938 35.640625 L 93.035156 35.640625 L 93.035156 35.957031 C 93.035156 36.070312 92.988281 36.109375 92.855469 36.109375 C 92.734375 36.109375 92.289062 36.117188 91.902344 36.089844 C 92.035156 36.367188 92.167969 36.777344 92.203125 37.054688 C 92.855469 37.054688 93.328125 37.054688 93.660156 36.890625 C 94 36.738281 94.09375 36.472656 94.09375 35.976562 Z M 92.15625 31.171875 L 92.15625 30.761719 L 94.191406 30.761719 L 94.191406 29.996094 L 92.15625 29.996094 L 92.15625 29.617188 L 94.445312 29.617188 L 94.445312 28.804688 L 92.15625 28.804688 L 92.15625 28.15625 L 91.042969 28.15625 L 91.042969 28.804688 L 88.828125 28.804688 L 88.828125 29.617188 L 91.042969 29.617188 L 91.042969 29.996094 L 89.085938 29.996094 L 89.085938 30.75 C 88.96875 30.398438 88.753906 29.863281 88.554688 29.453125 L 88.015625 29.683594 L 88.015625 28.15625 L 87.003906 28.15625 L 87.003906 37.054688 L 88.015625 37.054688 L 88.015625 30.121094 C 88.167969 30.492188 88.300781 30.894531 88.367188 31.171875 L 89.101562 30.808594 L 89.085938 30.761719 L 91.042969 30.761719 L 91.042969 31.171875 L 88.535156 31.171875 L 88.535156 31.980469 L 94.730469 31.980469 L 94.730469 31.171875 Z M 45.96875 36.367188 C 46.875 36.367188 47.621094 36.003906 48.199219 35.328125 L 47.460938 34.449219 C 47.085938 34.859375 46.613281 35.144531 46.015625 35.144531 C 44.910156 35.144531 44.191406 34.222656 44.191406 32.6875 C 44.191406 31.171875 44.984375 30.253906 46.042969 30.253906 C 46.574219 30.253906 46.980469 30.503906 47.328125 30.847656 L 48.066406 29.949219 C 47.613281 29.472656 46.90625 29.042969 46.015625 29.042969 C 44.246094 29.042969 42.761719 30.40625 42.761719 32.734375 C 42.761719 35.089844 44.199219 36.367188 45.96875 36.367188 Z M 51.734375 36.367188 C 53.589844 36.367188 54.867188 34.964844 54.867188 32.675781 C 54.867188 30.386719 53.589844 29.042969 51.734375 29.042969 C 49.882812 29.042969 48.605469 30.378906 48.605469 32.675781 C 48.605469 34.964844 49.882812 36.367188 51.734375 36.367188 Z M 51.734375 35.144531 C 50.695312 35.144531 50.035156 34.183594 50.035156 32.675781 C 50.035156 31.160156 50.695312 30.253906 51.734375 30.253906 C 52.777344 30.253906 53.4375 31.160156 53.4375 32.675781 C 53.4375 34.183594 52.777344 35.144531 51.734375 35.144531 Z M 57.351562 36.234375 L 59.015625 36.234375 L 61.164062 29.175781 L 59.746094 29.175781 L 58.835938 32.609375 C 58.621094 33.390625 58.457031 34.097656 58.242188 34.890625 L 58.195312 34.890625 C 57.96875 34.097656 57.824219 33.390625 57.609375 32.609375 L 56.679688 29.175781 L 55.214844 29.175781 Z M 61.964844 36.234375 L 63.367188 36.234375 L 63.367188 29.175781 L 61.964844 29.175781 Z M 65.085938 36.234375 L 67.082031 36.234375 C 69.144531 36.234375 70.464844 35.050781 70.464844 32.675781 C 70.464844 30.292969 69.144531 29.175781 67.007812 29.175781 L 65.085938 29.175781 Z M 66.484375 35.097656 L 66.484375 30.300781 L 66.921875 30.300781 C 68.226562 30.300781 69.039062 30.949219 69.039062 32.675781 C 69.039062 34.394531 68.226562 35.097656 66.921875 35.097656 Z M 71.441406 34.003906 L 74.023438 34.003906 L 74.023438 33 L 71.441406 33 Z M 75.25 36.234375 L 79.457031 36.234375 L 79.457031 35.097656 L 78.144531 35.097656 L 78.144531 29.175781 L 77.113281 29.175781 C 76.667969 29.453125 76.1875 29.636719 75.488281 29.769531 L 75.488281 30.636719 L 76.753906 30.636719 L 76.753906 35.097656 L 75.25 35.097656 Z M 82.691406 32.621094 C 82.085938 32.621094 81.699219 32.230469 81.699219 31.398438 C 81.699219 30.53125 82.125 30.101562 82.644531 30.101562 C 83.242188 30.101562 83.722656 30.578125 83.847656 31.867188 C 83.503906 32.410156 83.070312 32.621094 82.691406 32.621094 Z M 80.535156 35.566406 C 80.953125 35.996094 81.585938 36.367188 82.457031 36.367188 C 83.847656 36.367188 85.140625 35.214844 85.140625 32.542969 C 85.140625 30.09375 83.949219 29.042969 82.625 29.042969 C 81.425781 29.042969 80.421875 29.949219 80.421875 31.398438 C 80.421875 32.894531 81.265625 33.621094 82.425781 33.621094 C 82.910156 33.621094 83.503906 33.324219 83.863281 32.847656 C 83.808594 34.621094 83.15625 35.222656 82.371094 35.222656 C 81.953125 35.222656 81.519531 35.003906 81.265625 34.726562 Z M 80.535156 35.566406 "/>
<path style=" stroke:none;fill-rule:evenodd;fill:rgb(98.431373%,75.294118%,17.647059%);fill-opacity:1;" d="M 12.472656 14.382812 C 12.605469 14.523438 12.6875 14.789062 12.6875 15.078125 C 12.6875 15.363281 12.605469 15.628906 12.472656 15.773438 C 10.738281 17.660156 5.949219 22.867188 4.226562 24.738281 C 4.097656 24.878906 3.9375 24.878906 3.808594 24.734375 C 3.679688 24.589844 3.597656 24.328125 3.597656 24.042969 C 3.597656 20.28125 3.597656 9.871094 3.597656 6.109375 C 3.597656 5.824219 3.679688 5.558594 3.808594 5.417969 C 3.9375 5.273438 4.097656 5.273438 4.226562 5.414062 C 5.949219 7.285156 10.738281 12.492188 12.472656 14.378906 Z M 12.472656 14.382812 "/>
<path style=" stroke:none;fill-rule:evenodd;fill:rgb(98.431373%,75.294118%,17.647059%);fill-opacity:1;" d="M 28.597656 14.382812 C 28.476562 14.523438 28.402344 14.789062 28.402344 15.078125 C 28.402344 15.363281 28.476562 15.628906 28.597656 15.773438 C 30.1875 17.660156 34.566406 22.867188 36.140625 24.738281 C 36.261719 24.878906 36.40625 24.878906 36.523438 24.734375 C 36.644531 24.589844 36.714844 24.328125 36.714844 24.042969 C 36.714844 20.28125 36.714844 9.871094 36.714844 6.109375 C 36.714844 5.824219 36.640625 5.558594 36.523438 5.417969 C 36.40625 5.273438 36.261719 5.273438 36.140625 5.414062 C 34.566406 7.285156 30.1875 12.492188 28.597656 14.378906 Z M 28.597656 14.382812 "/>
<path style=" stroke:none;fill-rule:evenodd;fill:rgb(53.333333%,5.490196%,30.980392%);fill-opacity:1;" d="M 20.785156 37.660156 L 20.785156 26.144531 L 19.527344 26.144531 L 19.527344 38.863281 C 19.527344 39.3125 19.789062 39.679688 20.113281 39.679688 L 20.15625 39.679688 C 20.503906 39.679688 20.785156 39.292969 20.785156 38.8125 Z M 20.785156 37.660156 "/>
<path style=" stroke:none;fill-rule:evenodd;fill:rgb(92.54902%,25.098039%,47.843137%);fill-opacity:1;" d="M 3.597656 22.902344 C 3.597656 13.644531 11.019531 6.128906 20.15625 6.128906 C 29.296875 6.128906 36.714844 13.644531 36.714844 22.902344 C 36.714844 32.160156 29.296875 39.679688 20.15625 39.679688 C 11.019531 39.679688 3.597656 32.160156 3.597656 22.902344 Z M 3.597656 22.902344 "/>
<path style=" stroke:none;fill-rule:nonzero;fill:rgb(100%,100%,100%);fill-opacity:1;" d="M 26.304688 26.050781 C 26.570312 26.355469 26.828125 26.613281 27.128906 26.914062 C 26.832031 27.394531 26.402344 27.714844 26.046875 28.097656 C 25.679688 28.488281 25.292969 28.859375 24.851562 29.304688 C 24.386719 29.175781 23.867188 29.0625 23.367188 28.894531 C 22.320312 28.542969 22.324219 28.535156 21.167969 29.039062 C 21.070312 29.082031 20.964844 29.101562 20.875 29.125 C 20.875 29.234375 20.875 29.3125 20.875 29.390625 C 21.425781 29.71875 21.929688 29.390625 22.386719 29.253906 C 22.863281 29.355469 22.992188 29.628906 22.902344 30.128906 C 22.761719 30.269531 22.546875 30.472656 22.304688 30.710938 C 22.167969 30.628906 22.046875 30.558594 21.855469 30.449219 C 21.824219 30.542969 21.777344 30.6875 21.730469 30.835938 C 21.679688 30.796875 21.625 30.757812 21.574219 30.71875 L 21.574219 31.894531 C 21.421875 32.0625 21.320312 32.171875 21.164062 32.34375 C 20.601562 32.082031 20.023438 31.816406 19.453125 31.550781 C 19.234375 31.742188 19.042969 31.910156 18.835938 32.089844 C 18.375 31.8125 18.054688 31.488281 18.101562 30.898438 L 17.035156 30.898438 C 17.003906 30.757812 16.984375 30.65625 16.953125 30.5 C 16.074219 30.203125 15.554688 30.820312 15.03125 31.351562 C 14.25 31.402344 13.839844 30.820312 13.398438 30.402344 C 13.257812 30.453125 13.183594 30.46875 13.125 30.503906 C 13.0625 30.542969 13.015625 30.605469 12.96875 30.648438 C 12.445312 29.925781 12.34375 29.046875 12.1875 28.210938 C 12.042969 27.429688 11.667969 26.714844 11.625 25.886719 C 11.605469 25.5 11.511719 25.191406 11.652344 24.769531 C 11.816406 24.289062 11.691406 23.710938 11.691406 23.136719 C 11.335938 22.792969 10.949219 22.421875 10.601562 22.089844 C 10.492188 21.425781 10.515625 20.816406 10.804688 20.292969 C 11.136719 19.695312 11.046875 19.179688 10.695312 18.671875 C 10.449219 18.316406 10.523438 18.050781 10.875 17.757812 L 11.890625 17.757812 C 12.351562 17.523438 12.667969 17.359375 13.039062 17.167969 L 13.039062 16.207031 C 13.171875 16.164062 13.269531 16.109375 13.371094 16.105469 C 13.953125 16.078125 14.566406 16.242188 15.140625 15.679688 C 15.179688 15.585938 15.28125 15.359375 15.378906 15.136719 C 15.28125 14.980469 15.191406 14.828125 15.136719 14.738281 C 15.65625 13.980469 16.128906 13.289062 16.570312 12.644531 C 18.117188 12.832031 18.867188 14.035156 19.835938 14.933594 C 20.199219 14.945312 20.511719 14.945312 20.859375 14.65625 C 21.484375 14.128906 22.226562 13.742188 22.921875 13.292969 C 23.558594 13.675781 24.171875 14.039062 24.859375 14.453125 C 25.433594 15.058594 25.058594 16.257812 26.136719 16.804688 C 27.359375 16.792969 28.425781 15.816406 29.773438 15.617188 L 29.773438 16.703125 C 29.617188 16.792969 29.34375 16.859375 29.265625 17.019531 C 28.886719 17.796875 28.179688 18.261719 27.628906 18.871094 C 26.988281 19.582031 26.84375 20.023438 27.324219 20.832031 C 27.574219 21.25 27.453125 21.621094 27.515625 21.984375 C 27.292969 22.316406 27.089844 22.617188 26.816406 23.027344 C 26.886719 24.25 27.726562 25.109375 28.636719 25.960938 C 28.414062 26.402344 28.414062 26.402344 27.847656 26.511719 C 27.726562 26.355469 27.585938 26.175781 27.476562 26.039062 C 27.058594 26.039062 26.714844 26.039062 26.304688 26.050781 C 26.367188 26.046875 26.382812 26.03125 26.398438 26.015625 C 26.34375 25.953125 26.289062 25.890625 26.238281 25.828125 C 26.210938 25.851562 26.1875 25.878906 26.164062 25.902344 C 26.226562 25.953125 26.289062 26.007812 26.304688 26.050781 Z M 26.304688 26.050781 "/>
</g>
</svg>
