<svg xmlns="http://www.w3.org/2000/svg" viewBox="0 0 166.83 113.03"><defs><style>.cls-1,.cls-3{fill:#fff}.cls-2{fill:none;stroke-linecap:round;stroke-linejoin:round;stroke-width:3px;stroke:#4d4d4d}.cls-3{stroke:#4d4d4d;stroke-miterlimit:10}</style></defs><path d="M163.78 81.19c-1.1-.94-3.77-2-5.42-2.83s-14.46-3.61-17-4-8.25-2.2-11.71-3.14c-1.59-.43-5.43-1.83-9.29-3.27L107 61.3a11.89 11.89 0 011.95.17c1.41.24 8.41 2.59 11.31 3.46s11.79 4 15 4.71 13.12 3.85 18 4.79 8.88.31 9.43 0 1.18 0 1.18-2-4.2-4-6-5a106.7 106.7 0 00-11.08-5.54c-3.54-1.3-19.21-7.78-22.63-8.84A181.15 181.15 0 01106.75 46c-2.12-1.24-13.85-7.19-15.38-8s-4.3-2.24-4.3-2.24 1.71-.65 2.71-1.18 5.36-2.95 7.13-4.12 4.48-3.24 5-3.42a29.38 29.38 0 004.44-1.53c1.36-.78 3.4-1.46 4.29-2.34 1.17-1.17 3.66-2.55 4.48-3.31a13.7 13.7 0 002.53-4.09c.58-1.3.92-7.05-1.56-7.4s-7.4 2.14-10.13 3.31c-1.82.78-5.75 2.88-8.4 3.24s-7.6 3.36-10.08 4.6-9.72 2.3-14 3.71-10.08 4.42-12.9 5.3-10.43 2.65-13.26 4.07-4.6 3.71-7.07 5.3-21.93 5.12-21.93 5.12l-1.62.23.71 43.84s6.25-3.14 8.13-4 6.36-2.28 7.86-2.2a28.3 28.3 0 016.13 1.18c2.36.71 14.61 3.77 19.64 5.19s13.95 3.44 16.93 4.23 4.71 2 6.84 2.44a36.82 36.82 0 007.78 1.18c2.75 0 3.54.31 6.68 1.1s11.79 3.06 15.32 3.77a19.29 19.29 0 008.33-.16c.94-.39 2-2.36 2.2-3.22a17.36 17.36 0 012.67-4.4 7.6 7.6 0 012.2-1.34l-.12-.12c2.13.36 4.07.64 5.46.75a34.55 34.55 0 009.74-.39 12.42 12.42 0 003.69-1.65c.86-.55 6.68-1.65 7.7-2.2a6 6 0 001.73-1.49l-.2-.1c3.79.06 8.27 0 8.92-.3a1.8 1.8 0 001-1.81c.02-.71-1.16-1.41-2.26-2.36z" class="cls-1"/><path d="M17.63 43.09S37.08 39.56 39.56 38s4.24-3.89 7.07-5.3 10.43-3.18 13.26-4.07 8.66-3.89 12.9-5.3 11.49-2.47 14-3.71 7.42-4.24 10.08-4.6 8.12-3.58 9.91-4.41c2.53-1.17 6.49-3.86 9-3.51s2.92 4.68 2.53 6.23c-.34 1.38-.2 2.85-1.75 5.07-1.36 1.95-5.46 3.7-7.79 5.26-1.08.72-7 3.31-7.5 3.48s-3.24 2.24-5 3.42S90 34.13 89 34.66s-2.71 1.18-2.71 1.18 2.77 1.47 4.3 2.24S103.89 44.8 106 46a181.16 181.16 0 0017.44 7.07c3.42 1.06 19.09 7.54 22.63 8.84a106.7 106.7 0 0111.08 5.54c1.77.94 6 3 6 5s-.63 1.65-1.18 2-4.56.94-9.43 0-14.77-4.09-18-4.79-12.1-3.85-15-4.71-9.9-3.22-11.31-3.46a10.52 10.52 0 00-2.36-.16 12.89 12.89 0 003.77 2.83c1.73.63 15.87 6.13 19.33 7.07s9.19 2.75 11.71 3.14 15.32 3.22 17 4 4.32 1.89 5.42 2.83 2.28 1.65 2.28 2.36a1.8 1.8 0 01-1 1.81c-.79.31-7.15.39-11.16.24s-15.63-.08-17.52-.08-1.73 0-5.26-.79-14.06-4.48-18.78-6.21-7.39-2.59-9.59-2.75-5.26-.71-5.66-.79M155.59 85.75a6 6 0 01-1.73 1.49c-1 .55-6.84 1.65-7.7 2.2a12.42 12.42 0 01-3.69 1.65 34.55 34.55 0 01-9.74.39c-5-.39-17.36-3.06-18.93-3.38s-5.66-1.41-8.25-1.81-7.07.71-8.88 1" class="cls-2"/><path d="M101.22 87s9.19 1.89 11.16 2.44a12.13 12.13 0 002.83.55s1-.79 1.57-1.1" class="cls-2"/><path d="M127.39 90.86a7.6 7.6 0 00-2.2 1.34 17.36 17.36 0 00-2.67 4.4c-.24.86-1.26 2.83-2.2 3.22a19.29 19.29 0 01-8.32.18c-3.54-.71-12.24-3-15.32-3.77S92.74 95.1 90 95.1a36.83 36.83 0 01-7.78-1.18c-2.12-.47-3.85-1.65-6.84-2.44s-11.86-2.75-16.89-4.16-17.29-4.48-19.65-5.18A28.29 28.29 0 0032.71 81c-1.49-.08-6 1.34-7.86 2.2s-7.39 4-7.39 4" class="cls-2"/><circle cx="114.69" cy="32.95" r="6.29" class="cls-3"/><circle cx="99.02" cy="55.11" r="6.91" class="cls-3"/><circle cx="61.86" cy="25.11" r="6.4" class="cls-3" transform="rotate(-15.82 61.843 25.1)"/><circle cx="124.61" cy="70.8" r="6.89" class="cls-3"/><circle cx="156.12" cy="85.78" r="5.25" class="cls-3"/><path d="M142.77 106.93c-.76-1.23-3-3.09-4.31-4.34s-12.69-7.82-15-9-7.2-4.59-10.21-6.54c-1.38-.89-4.62-3.39-7.87-5.93L94.66 70.79a11.89 11.89 0 011.81.75c1.28.65 7.23 5 9.74 6.72s10 7.38 12.88 9 11.34 7.64 15.7 10 8.37 3 9 2.85 1.12.36 1.72-1.52-2.78-5.13-4.18-6.56a106.7 106.7 0 00-8.88-8.63c-3-2.31-16-13.23-18.89-15.27A181.15 181.15 0 0199 56.16c-1.65-1.82-11-11-12.25-12.23s-3.42-3.44-3.42-3.44 1.82-.1 2.94-.3 6-1.19 8-1.77 5.25-1.73 5.81-1.74a29.38 29.38 0 004.69-.12c1.54-.33 3.68-.36 4.79-.93 1.47-.76 4.26-1.32 5.27-1.8a13.7 13.7 0 003.65-3.13c.94-1.06 3-6.44.75-7.53s-7.71-.2-10.66.09c-2 .19-6.35 1-9 .54s-8.26.9-11 1.33-10-.75-14.43-.69-10.84 1.16-13.8 1.15-10.74-.59-13.87-.14-5.47 2.15-8.34 2.92-22.45-1.75-22.45-1.75l-1.61-.27-12.58 42s6.9-1.11 9-1.36 6.76-.25 8.15.28a28.3 28.3 0 015.48 3c2 1.39 12.79 8 17.15 10.88s12.23 7.43 14.84 9.08 3.9 3.3 5.78 4.39a36.82 36.82 0 007.06 3.48c2.62.83 3.27 1.37 6 3.07s10.31 6.49 13.46 8.23a19.29 19.29 0 008 2.37c1-.09 2.59-1.65 3.07-2.4a17.36 17.36 0 013.88-3.39 7.6 7.6 0 012.5-.61l-.08-.15c1.92 1 3.69 1.84 5 2.37a34.55 34.55 0 009.4 2.57 12.42 12.42 0 004-.46c1-.26 6.86.45 8 .23a6 6 0 002.1-.9l-.16-.15c3.6 1.21 7.89 2.47 8.59 2.42a1.8 1.8 0 001.52-1.41c.21-.7-.7-1.73-1.46-2.96z" class="cls-1"/><path d="M15 26.39s19.61 2.52 22.45 1.75 5.22-2.42 8.34-2.92 10.9.12 13.87.14 9.43-1.09 13.9-1.15 11.7 1.12 14.43.69 8.36-1.8 11-1.33 8.82-1 10.78-1.2c2.77-.35 7.35-1.72 9.6-.63s1.37 5.34.53 6.71c-.74 1.21-1.05 2.65-3.2 4.3-1.89 1.44-6.32 1.88-9 2.66-1.25.36-7.65 1-8.21 1s-3.77 1.15-5.81 1.74-6.93 1.57-8 1.77-2.94.3-2.94.3 2.19 2.24 3.42 3.44 10.6 10.41 12.25 12.23a181.16 181.16 0 0014.49 12c2.94 2 15.92 13 18.89 15.27a106.7 106.7 0 018.88 8.63c1.4 1.43 4.78 4.69 4.18 6.56s-1.1 1.38-1.72 1.52-4.63-.48-9-2.85-12.84-8.36-15.7-10S108 79.74 105.5 78s-8.5-6-9.73-6.68a10.52 10.52 0 00-2.2-.86 12.89 12.89 0 002.74 3.84c1.46 1.12 13.27 10.64 16.28 12.59s7.93 5.4 10.21 6.54 13.63 7.71 15 9 3.55 3.1 4.31 4.34 1.67 2.26 1.46 2.94a1.8 1.8 0 01-1.52 1.41c-.84.06-6.93-1.79-10.71-3.15s-14.88-4.8-16.68-5.38-1.65-.52-4.78-2.34-12-8.52-16-11.6-6.25-4.71-8.3-5.52-4.8-2.27-5.15-2.46M133.58 108.79a6 6 0 01-2.1.9c-1.14.22-7-.5-8-.23a12.42 12.42 0 01-4 .46 34.55 34.55 0 01-9.4-2.57c-4.67-1.9-15.62-8.17-17-8.95s-5-3.06-7.32-4.22-7-1.47-8.77-1.71" class="cls-2"/><path d="M81.38 93.54s8.19 4.58 9.9 5.7a12.13 12.13 0 002.53 1.38s1.21-.44 1.83-.57" class="cls-2"/><path d="M105.15 105.13a7.6 7.6 0 00-2.5.61 17.36 17.36 0 00-3.88 3.39c-.49.75-2.05 2.32-3.07 2.4a19.29 19.29 0 01-8-2.37c-3.16-1.74-10.76-6.56-13.46-8.23s-3.41-2.24-6-3.07a36.83 36.83 0 01-7.06-3.48c-1.9-1.09-3.18-2.74-5.8-4.38s-10.48-6.21-14.84-9.08S25.42 71.41 23.39 70a28.29 28.29 0 00-5.48-3c-1.4-.53-6.1-.53-8.15-.28S1.5 68.36 1.5 68.36" class="cls-2"/><circle cx="73.09" cy="70.82" r="6.81" class="cls-3"/><circle cx="69.49" cy="63.91" r="4.52" class="cls-3"/><circle cx="153.69" cy="59.77" r="3.06" class="cls-3"/><circle cx="106.57" cy="8.06" r="7.56" class="cls-3"/><circle cx="112.95" cy="13.87" r="4.89" class="cls-3"/><circle cx="68.31" cy="15.87" r="3.46" class="cls-3"/><circle cx="142.61" cy="61.36" r="5.54" class="cls-3"/></svg>
