<svg xmlns="http://www.w3.org/2000/svg" viewBox="0 0 173.11 51.2"><defs><style>.cls-1{fill:none;stroke:#4d4d4d;stroke-miterlimit:10;stroke-width:3px}.cls-2{fill:#4d4d4d}.cls-3{fill:#fff}</style></defs><path d="M76 .77s.19 10-2.51 15.93-6.87 7.63-7.52 13.45 1.49 7.82 2.6 9.35M73 36.64a7.65 7.65 0 014.64-.48c2.51.57 4.46 3.63 6.22 4.2a5.74 5.74 0 004.8.1c1.76-.57 3.71-3.63 6.22-4.2a7.65 7.65 0 014.64.48M96.55.77s-.19 10 2.51 15.93 6.87 7.63 7.52 13.45S105.09 38 104 39.5M53.77 23.41S42.62 34.07 28.33 34.07 2 23.41 2 23.41 13.6 7.63 27.89 7.63s25.88 15.78 25.88 15.78z" class="cls-1"/><ellipse cx="28.19" cy="20.92" class="cls-2" rx="12.42" ry="12.76"/><ellipse cx="31.21" cy="16.67" class="cls-3" rx="3.98" ry="4.09"/><path d="M141.84 37.49c-2.38 0-6.67-.24-9.05-1.47s-8.07-4.28-11.17-8.2-5.48-7.71-5.48-7.71S129.48 5 131.87 4.56s5.24-.73 7.62 1.22 5 3.67 5 3.67a.22.22 0 00.27 0s2.62-1.71 5-3.67 5.24-1.71 7.62-1.22 15.72 15.55 15.72 15.55-2.38 3.79-5.48 7.71-8.84 7-11.23 8.2-6.67 1.47-9.05 1.47h-5.51z" class="cls-2"/><path d="M143.15 25.89c-1.43 0-4.73-.18-7.77-.55a62.48 62.48 0 01-10.9-2.48c-2.05-.83-4.2-1.9-4.2-1.9a56 56 0 016.88-3.61 18.06 18.06 0 017.68-1.84c2.14-.09 3.6 1.42 6.25 2.66a7.68 7.68 0 007.06 0c2.66-1.12 4.11-2.75 6.25-2.66a18.06 18.06 0 017.68 1.84A56 56 0 01169 21s-2.14 1.07-4.2 1.9a62.48 62.48 0 01-10.9 2.48c-3 .37-6.34.55-7.77.55h-2.95z" class="cls-3"/><path d="M41.38 43.31a1.9 1.9 0 01-.87-3.6V39a6.33 6.33 0 01-3-1.29l-.55.55a1.88 1.88 0 01-.38 2.05 1.91 1.91 0 11-1.37-3.25 1.93 1.93 0 01.42 0l.66-.66a6.33 6.33 0 01-1.2-3h-.77a1.91 1.91 0 11-.12-1.75h.88a6.34 6.34 0 011.24-2.95l-.52-.52a1.94 1.94 0 01-.68.13 1.85 1.85 0 01-1.31-.54A1.91 1.91 0 1137 27l.57.57a6.34 6.34 0 012.93-1.27v-.82a1.91 1.91 0 111.75 0v.8a6.33 6.33 0 013 1.2l.5-.5a1.87 1.87 0 01.45-1.88 1.91 1.91 0 012.72 2.68 1.85 1.85 0 01-1.33.55 1.94 1.94 0 01-.61-.1l-.47.47a6.33 6.33 0 011.29 3h.77a1.91 1.91 0 11-.12 1.75h-.65a6.32 6.32 0 01-1.25 3.06l.57.57a1.92 1.92 0 01.5-.07 1.87 1.87 0 011.33.55 1.91 1.91 0 01-2.7 2.7 1.87 1.87 0 01-.42-2l-.52-.52A6.32 6.32 0 0142.25 39v.69a1.9 1.9 0 01-.87 3.62z" class="cls-2"/><path d="M41.38 22.38a1.41 1.41 0 01.38 2.76v1.6a5.9 5.9 0 013.54 1.41l1-1a1.4 1.4 0 012.21-1.67 1.41 1.41 0 010 2 1.35 1.35 0 01-1 .4 1.46 1.46 0 01-.73-.2l-1 1a5.9 5.9 0 011.52 3.54h1.52a1.41 1.41 0 11-.07.75h-1.4a5.9 5.9 0 01-1.47 3.6L47 37.68a1.44 1.44 0 01.63-.14 1.37 1.37 0 011 .4 1.41 1.41 0 11-2 2 1.39 1.39 0 01-.17-1.74l-1.11-1.1a5.9 5.9 0 01-3.6 1.47V40a1.41 1.41 0 11-.75 0v-1.44A5.9 5.9 0 0137.46 37l-1.14 1.14A1.39 1.39 0 0136.2 40a1.41 1.41 0 11-2-2 1.39 1.39 0 011-.42 1.43 1.43 0 01.56.11l1.19-1.19a5.9 5.9 0 01-1.43-3.5H34a1.41 1.41 0 11-.07-.75h1.64A5.9 5.9 0 0137 28.74l-1.1-1.1a1.45 1.45 0 01-.78.23 1.35 1.35 0 01-1-.4 1.41 1.41 0 112.25-.39l1.12 1.12A5.9 5.9 0 0141 26.74v-1.6a1.41 1.41 0 01.38-2.76m0-1A2.4 2.4 0 0040 25.76v.12a6.82 6.82 0 00-2.39 1l-.08-.08a2.4 2.4 0 10-4.08 1.39 2.34 2.34 0 001.67.69 2.43 2.43 0 00.54-.06 6.82 6.82 0 00-1 2.39h-.2a2.41 2.41 0 10.16 2.79 6.81 6.81 0 001 2.44l-.18.18h-.25a2.42 2.42 0 102.32 1.82 6.81 6.81 0 002.49.98 2.41 2.41 0 102.77 0 7 7 0 002.49-1 2.36 2.36 0 00.63 2.21 2.41 2.41 0 103.41-3.41 2.36 2.36 0 00-1.68-.7h-.33l-.08-.08a7 7 0 001-2.39 2.41 2.41 0 10.09-2.87h-.09a6.81 6.81 0 00-1-2.42 2.42 2.42 0 00.4 0 2.34 2.34 0 001.68-.7 2.41 2.41 0 10-3.43-3.38 2.37 2.37 0 00-.64 2.08 6.82 6.82 0 00-2.44-1v-.1a2.4 2.4 0 00-1.38-4.38z" class="cls-3"/><path d="M71.46 50.69a1.9 1.9 0 01-.88-3.6v-.69a6.32 6.32 0 01-3-1.29l-.58.55a1.89 1.89 0 01-3.08 2.07 1.91 1.91 0 010-2.7 1.91 1.91 0 011.77-.52l.66-.66a6.33 6.33 0 01-1.2-3h-.74a1.91 1.91 0 11-.12-1.75h.88a6.34 6.34 0 011.24-2.95l-.52-.52a1.94 1.94 0 01-.68.13 1.84 1.84 0 01-1.31-.54 1.91 1.91 0 113.18-.87l.57.57a6.34 6.34 0 012.95-1.24v-.81a1.91 1.91 0 111.75 0v.8a6.32 6.32 0 013 1.2l.5-.5a1.9 1.9 0 113.17.79 1.84 1.84 0 01-1.32.55 1.93 1.93 0 01-.61-.1l-.47.47a6.31 6.31 0 011.29 3h.77a1.91 1.91 0 11-.12 1.75h-.67a6.34 6.34 0 01-1.25 3.06l.57.57a2 2 0 01.5-.07A1.87 1.87 0 0179 45a1.91 1.91 0 11-2.7 2.7 1.87 1.87 0 01-.42-2l-.52-.52a6.32 6.32 0 01-3.06 1.25v.67a1.9 1.9 0 01-.84 3.59z" class="cls-2"/><path d="M71.46 29.77a1.41 1.41 0 01.38 2.76v1.6a5.9 5.9 0 013.54 1.41l1-1a1.4 1.4 0 012.21-1.67 1.41 1.41 0 010 2 1.35 1.35 0 01-1 .4A1.46 1.46 0 0177 35l-1 1a5.9 5.9 0 011.52 3.54H79a1.41 1.41 0 11-.07.75h-1.5A5.89 5.89 0 0176 44l1.12 1.12a1.44 1.44 0 01.63-.14 1.37 1.37 0 011 .4 1.41 1.41 0 11-2 2 1.39 1.39 0 01-.17-1.74l-1.09-1.09A5.89 5.89 0 0171.84 46v1.48a1.41 1.41 0 11-.75 0v-1.53a5.9 5.9 0 01-3.54-1.52l-1.14 1.14a1.39 1.39 0 01-.12 1.79 1.41 1.41 0 01-2-2 1.39 1.39 0 011-.42 1.43 1.43 0 01.56.11L67 43.89a5.9 5.9 0 01-1.41-3.54H64a1.41 1.41 0 110-.74h1.64a5.9 5.9 0 011.46-3.48L66 35a1.45 1.45 0 01-.78.23 1.35 1.35 0 01-1-.4 1.41 1.41 0 112.25-.39l1.12 1.12a5.9 5.9 0 013.48-1.46v-1.57a1.41 1.41 0 01.38-2.76m0-1a2.4 2.4 0 00-1.38 4.38v.12a6.82 6.82 0 00-2.39 1l-.08-.08a2.4 2.4 0 10-4.08 1.39 2.34 2.34 0 001.67.69 2.43 2.43 0 00.54-.06 6.82 6.82 0 00-1 2.39h-.19a2.41 2.41 0 10.17 2.75 6.81 6.81 0 001 2.44l-.19.21h-.24a2.38 2.38 0 00-1.71.71A2.41 2.41 0 0067 48.06a2.37 2.37 0 00.6-2.27 6.81 6.81 0 002.46 1.05 2.41 2.41 0 102.77 0 7 7 0 002.49-1A2.36 2.36 0 0076 48a2.41 2.41 0 003.41-3.41 2.36 2.36 0 00-1.68-.7h-.33l-.08-.08a7 7 0 001-2.39 2.41 2.41 0 10.09-2.87h-.11a6.81 6.81 0 00-1-2.42 2.43 2.43 0 00.4 0 2.34 2.34 0 001.68-.7 2.41 2.41 0 10-3.43-3.38 2.37 2.37 0 00-.64 2.08 6.81 6.81 0 00-2.44-1v-.1a2.4 2.4 0 00-1.38-4.38z" class="cls-3"/><path d="M129.53 21.93a1.9 1.9 0 01-.88-3.6v-.7a6.32 6.32 0 01-3-1.29l-.55.55a1.89 1.89 0 11-1.75-1.19 1.93 1.93 0 01.42 0l.66-.66a6.32 6.32 0 01-1.2-3h-.74a1.91 1.91 0 11-.12-1.75h.88a6.34 6.34 0 011.24-2.95l-.52-.52a1.92 1.92 0 01-.68.13 1.85 1.85 0 01-1.29-.5 1.91 1.91 0 113.18-.87l.57.57a6.34 6.34 0 012.95-1.24V4.1a1.91 1.91 0 111.75 0v.8a6.34 6.34 0 013 1.2l.5-.5a1.89 1.89 0 011.81-2.46 1.91 1.91 0 011.36 3.25 1.85 1.85 0 01-1.33.55 1.93 1.93 0 01-.61-.1l-.47.47a6.33 6.33 0 011.29 3h.77a1.91 1.91 0 11-.12 1.75H136a6.45 6.45 0 01-1.25 3.06l.57.57a1.92 1.92 0 01.5-.07 1.86 1.86 0 011.33.55 1.91 1.91 0 11-2.7 2.7 1.87 1.87 0 01-.42-2l-.52-.52a6.33 6.33 0 01-3.06 1.25v.69a1.9 1.9 0 01-.92 3.64z" class="cls-2"/><path d="M129.53 1a1.41 1.41 0 01.38 2.76v1.6a5.9 5.9 0 013.54 1.41l1-1a1.4 1.4 0 012.21-1.67 1.41 1.41 0 010 2 1.35 1.35 0 01-1 .4 1.46 1.46 0 01-.73-.2l-1 1a5.9 5.9 0 011.52 3.54H137a1.41 1.41 0 11-.07.75h-1.43a5.89 5.89 0 01-1.47 3.6l1.12 1.12a1.44 1.44 0 01.63-.14 1.37 1.37 0 011 .4 1.41 1.41 0 11-2 2 1.39 1.39 0 01-.17-1.74l-1.09-1.09a5.89 5.89 0 01-3.6 1.47v1.48a1.41 1.41 0 11-.75 0v-1.51a5.9 5.9 0 01-3.54-1.52l-1.14 1.14a1.39 1.39 0 01-.12 1.79 1.41 1.41 0 01-2-2 1.39 1.39 0 011-.42 1.43 1.43 0 01.56.11l1.19-1.19a5.9 5.9 0 01-1.41-3.54h-1.61a1.41 1.41 0 11-.07-.75h1.64a5.9 5.9 0 011.46-3.48L124 6.27a1.45 1.45 0 01-.78.23 1.35 1.35 0 01-1-.4 1.41 1.41 0 112.25-.39l1.12 1.12a5.9 5.9 0 013.48-1.46V3.76a1.41 1.41 0 01.46-2.76m0-1a2.4 2.4 0 00-1.38 4.38v.12a6.82 6.82 0 00-2.39 1l-.08-.08a2.4 2.4 0 10-4.08 1.39 2.34 2.34 0 001.67.69 2.43 2.43 0 00.54-.06 6.82 6.82 0 00-1 2.39h-.21a2.41 2.41 0 10.17 2.75 6.82 6.82 0 001 2.44l-.18.18h-.25a2.42 2.42 0 102.32 1.8 6.81 6.81 0 002.49 1 2.41 2.41 0 102.77 0 7 7 0 002.49-1 2.36 2.36 0 00.63 2.21 2.41 2.41 0 003.41-3.41 2.36 2.36 0 00-1.68-.7h-.33l-.08-.08a7 7 0 001-2.39 2.41 2.41 0 10.09-2.87h-.09a6.81 6.81 0 00-1-2.42 2.43 2.43 0 00.4 0 2.34 2.34 0 001.68-.7A2.41 2.41 0 10134 3.37a2.37 2.37 0 00-.64 2.08 6.82 6.82 0 00-2.44-1v-.07A2.4 2.4 0 00129.53 0z" class="cls-3"/></svg>
