<svg xmlns="http://www.w3.org/2000/svg" viewBox="0 0 110.68 76.58"><defs><style>.cls-1,.cls-3{fill:#4d4d4d}.cls-3,.cls-4{stroke:#fff;stroke-miterlimit:10}.cls-4{fill:none;stroke-width:8px;stroke:#dc3115}</style></defs><ellipse cx="83.61" cy="22.81" class="cls-1" rx="13.33" ry="14.61" transform="rotate(-83.69 83.613 22.811)"/><path d="M73.8 36.9v38.59h24.4V42.16c0-2.9-2.69-5.26-6-5.26H73.8z" class="cls-1"/><path d="M59.53 75.65l11-34.39A4.62 4.62 0 1179.38 44L69.5 75.24" class="cls-1"/><path d="M98.87 47.54a4.59 4.59 0 01-2.8-.53L81.16 38l-12.08 8A4.62 4.62 0 1164 38.3l16.71-11 19.79 11.61a4.62 4.62 0 01-1.63 8.63z" class="cls-1"/><path fill="#fff" d="M80.71 27.27l19.79 11.64A4.62 4.62 0 1196.07 47l-14.91-9-12.08 8A4.62 4.62 0 1164 38.3l16.71-11m0-.78l-.34.23-16.71 11a5.28 5.28 0 003.59 9.63 5.22 5.22 0 002.23-.83l11.73-7.75 14.55 8.76a5.27 5.27 0 105.08-9.24L81 26.7l-.35-.21z"/><ellipse cx="24.04" cy="25.01" class="cls-1" rx="13.33" ry="14.61" transform="rotate(-83.69 24.037 25.007)"/><path d="M10.32 40.67h27.43v35.91H10.32z" class="cls-1"/><path d="M5.67 54.8a4.62 4.62 0 01-2.33-7.36L14.93 33a4.62 4.62 0 117.15 5.84L10.49 53.27a4.62 4.62 0 01-4.82 1.53zM42.6 54.8a4.62 4.62 0 002.33-7.36L33.35 33a4.62 4.62 0 00-7.15 5.84l11.58 14.43a4.62 4.62 0 004.82 1.53z" class="cls-3"/><path d="M2.83 5.54l19.78 19.78M22.61 5.54L2.83 25.32" class="cls-4"/><circle cx="96.08" cy="14.61" r="10.61" fill="none" stroke="#1c479c" stroke-miterlimit="10" stroke-width="8"/></svg>
