<svg xmlns="http://www.w3.org/2000/svg" viewBox="0 0 800.9 359.1"><path fill="#4d4d4d" d="M275 60.3H13.4C6 60.3 0 66.3 0 73.6S6 87 13.4 87h99.4l.3 258.7c0 7.4 6 13.4 13.4 13.4s13.4-6 13.4-13.4V198.5h8.9v145.7c0 7.4 6 13.4 13.4 13.4s13.4-6 13.4-13.4L175.1 87H275c7.4 0 13.4-6 13.4-13.4 0-7.3-6-13.3-13.4-13.3M144.2 55.2c15.2 0 27.6-12.4 27.6-27.6 0-15.2-12.4-27.6-27.6-27.6-15.2 0-27.6 12.4-27.6 27.6 0 15.2 12.4 27.6 27.6 27.6M787.5 60.3H525.9c-7.4 0-13.4 6-13.4 13.4s6 13.4 13.4 13.4h99.4l.3 258.7c0 7.4 6 13.4 13.4 13.4s13.4-6 13.4-13.4V198.5h8.9v145.7c0 7.4 6 13.4 13.4 13.4s13.4-6 13.4-13.4L687.6 87h99.9c7.4 0 13.4-6 13.4-13.4 0-7.3-6-13.3-13.4-13.3M656.7 55.2c15.2 0 27.6-12.4 27.6-27.6C684.3 12.4 672 0 656.7 0c-15.2 0-27.6 12.4-27.6 27.6 0 15.2 12.4 27.6 27.6 27.6"/><path fill="#4d4d4d" d="M496 205.9l-.1-4.1c46.6-1 69.7-12.1 100.5-36.5H195.1c30.8 24.4 53.9 35.5 100.5 36.5l-.1 4.1c-50.1-1.1-73.7-13.5-107.6-41.1l-4.5-3.7h424.7l-4.5 3.7c-33.9 27.6-57.5 40.1-107.6 41.1z"/><g fill="#4d4d4d"><path d="M363.6 228.2c-4.1 0-4.9.1-6.7.3.3-3 .7-4.8 1.4-6.7 1.4-3.8 3.7-7.1 7.1-10.2 1.8-1.6 3.4-2.8 8.6-6.3 4.8-3.3 6.2-5 6.2-7.6 0-3.5-2.8-5.7-7.2-5.7-3 0-5.3 1-6.6 3.1-.9 1.2-1.2 2.4-1.6 4.8l-7.4-.9c.7-4 1.7-6.1 3.6-8.3 2.6-3 6.7-4.6 11.9-4.6 9.1 0 14.7 4.4 14.7 11.5 0 3.4-1.1 5.9-3.7 8.3-1.5 1.4-2 1.8-8.7 6.4-2.3 1.6-4.9 3.8-6.2 5.2-1.6 1.7-2.2 2.7-3 4.7h14.6c3.3 0 5.9-.2 7.6-.4v6.9c-2.4-.2-4.5-.3-7.9-.3l-16.7-.2zM396.9 228.2c.3-2.2.4-4 .4-6.8v-16.3c0-3.3-.1-4.8-.4-6.8h7v2.7c0 .3 0 1.1-.1 1.9 1.5-3.2 5.4-5.2 9.7-5.2 2.8 0 5.1.8 6.7 2.3.9.8 1.4 1.5 2 3.1 1.8-2.3 2.8-3.3 4.4-4.1 1.7-.9 3.5-1.4 5.8-1.4 3.3 0 6 1 7.8 3 1.7 1.9 2.4 4.2 2.4 7.9v12.8c0 2.9.1 4.6.4 6.8h-7.6c.3-2.1.4-3.7.4-6.8v-11.6c0-4.6-1.6-6.7-5.1-6.7-1.7 0-3 .5-4.3 1.6-1.8 1.6-2.7 3.2-3.3 6.4v10.3c0 2.9.1 4.6.4 6.8H416c.3-2.2.4-3.8.4-6.8v-11.6c0-4.4-1.7-6.6-5-6.6-2.2 0-4 .9-5.4 2.7-1.1 1.5-1.7 2.7-2.2 5.2v10.3c0 2.8.1 4.4.4 6.8l-7.3.1z"/></g></svg>
