<svg xmlns="http://www.w3.org/2000/svg" width="27" height="27"><path d="M26.314.73a1.404 1.404 0 00-1.41-.347L1.261 7.796A1.393 1.393 0 00.279 9.05c-.034.574.294 1.12.816 1.357l6.674 3.051c.684.312 1.546-.014 1.855-.692.156-.339.171-.72.041-1.07a1.39 1.39 0 00-.732-.788l-3.349-1.53L23.19 3.856 17.775 21.26l-2.986-6.878 2.557-2.623c.263-.27.403-.624.397-1a1.373 1.373 0 00-.42-.978c-.532-.525-1.454-.518-1.984.021l-3.212 3.295a1.393 1.393 0 00-.282 1.538l4.859 11.2a1.395 1.395 0 001.361.844 1.406 1.406 0 001.264-.981l7.332-23.562A1.396 1.396 0 0026.314.73z"/></svg>
