<?xml version="1.0" encoding="UTF-8" standalone="no"?><!-- Generator: Gravit.io --><svg xmlns="http://www.w3.org/2000/svg" xmlns:xlink="http://www.w3.org/1999/xlink" style="isolation:isolate" viewBox="0 0 1600 643" width="1600pt" height="643pt"><defs><clipPath id="_clipPath_90ziBsyzKJfLUAphZGyeyrDZH9TtLNDh"><rect width="1600" height="643"/></clipPath></defs><g clip-path="url(#_clipPath_90ziBsyzKJfLUAphZGyeyrDZH9TtLNDh)"><clipPath id="_clipPath_LoaPI0xSaiQCOelBKsQslJrnPJTZM6en"><rect x="0" y="0" width="1600" height="643" transform="matrix(1,0,0,1,0,0)" fill="rgb(255,255,255)"/></clipPath><g clip-path="url(#_clipPath_LoaPI0xSaiQCOelBKsQslJrnPJTZM6en)"><g><path d=" M 1314.26 157.104 L 1234.252 157.104 L 1234.252 144.926 L 1314.26 144.926 L 1314.26 157.104 Z  M 1314.26 188.419 L 1234.252 188.419 L 1234.252 175.993 L 1314.26 175.993 L 1314.26 188.419 Z  M 1314.26 219.734 L 1234.252 219.734 L 1234.252 207.059 L 1314.26 207.059 L 1314.26 219.734 Z  M 1344.752 124.795 L 1205.064 124.795 L 1205.064 239.617 L 1344.752 239.617 L 1344.752 124.795 Z  M 1194.639 283.856 C 1181.869 296.283 1158.154 313.431 1139.39 324.118 C 1146.687 328.841 1158.154 337.539 1164.93 343.753 C 1183.954 331.574 1208.191 313.431 1226.434 297.028 L 1194.639 283.856 Z  M 1377.589 279.382 L 1377.589 252.789 L 1184.997 252.789 L 1184.997 151.139 L 1153.984 151.139 L 1153.984 279.382 L 1243.895 279.382 L 1243.895 348.226 L 1276.732 348.226 L 1276.732 279.382 L 1377.589 279.382 Z  M 1294.714 298.768 C 1314.521 312.189 1341.103 331.823 1353.612 344.001 L 1382.54 325.61 C 1368.207 313.431 1340.582 294.792 1321.297 282.862 L 1294.714 298.768 Z  M 1073.976 168.785 L 1073.976 300.011 L 1016.12 300.011 L 1016.12 118.084 L 983.544 118.084 L 983.544 300.011 L 926.47 300.011 L 926.47 169.779 L 894.676 169.779 L 894.676 330.332 L 1073.976 330.332 L 1073.976 347.978 L 1106.553 347.978 L 1106.553 168.785 L 1073.976 168.785 Z  M 850.632 128.026 L 629.634 128.026 L 629.634 348.475 L 659.864 348.475 L 659.864 156.11 L 768.279 156.11 C 764.37 168.04 757.333 183.697 750.557 195.627 L 708.338 195.627 L 724.496 189.662 C 721.108 180.715 714.072 166.548 707.556 156.11 L 682.538 164.063 C 687.75 173.507 693.483 186.182 696.871 195.627 L 668.465 195.627 L 668.465 219.734 L 724.496 219.734 L 724.496 284.105 L 704.168 284.105 L 704.168 232.658 L 677.847 232.658 L 677.847 308.709 L 801.116 308.709 L 801.116 232.658 L 773.491 232.658 L 773.491 284.105 L 752.642 284.105 L 752.642 219.734 L 812.062 219.734 L 812.062 195.627 L 779.485 195.627 C 786 185.685 792.776 173.507 799.292 162.323 L 770.885 156.11 L 820.141 156.11 L 820.141 316.165 C 820.141 320.39 818.577 321.882 814.147 321.882 C 810.237 321.882 795.904 322.13 783.655 321.385 C 787.304 327.846 791.734 338.782 793.298 345.989 C 814.147 345.989 828.22 345.741 837.602 341.267 C 847.244 337.042 850.632 330.58 850.632 316.414 L 850.632 128.026 Z " fill="rgb(70,70,70)"/><path d=" M 1416.569 466.787 L 1396.67 466.787 L 1401.032 465.561 C 1400.487 461.745 1398.578 455.884 1396.262 450.978 L 1416.978 450.978 C 1415.751 455.612 1413.707 461.472 1412.208 465.561 L 1416.569 466.787 Z  M 1414.116 427.944 L 1431.833 427.944 L 1431.833 414.588 L 1414.116 414.588 L 1414.116 402.731 L 1399.124 402.731 L 1399.124 414.588 L 1379.634 414.588 L 1379.634 427.944 L 1399.124 427.944 L 1399.124 437.349 L 1374.864 437.349 L 1374.864 450.978 L 1388.357 450.978 L 1383.45 452.204 C 1385.358 456.702 1387.13 462.426 1387.948 466.787 L 1377.726 466.787 L 1377.726 480.416 L 1399.124 480.416 L 1399.124 490.911 L 1378.816 490.911 L 1378.816 504.54 L 1399.124 504.54 L 1399.124 529.345 L 1414.116 529.345 L 1414.116 504.54 L 1433.333 504.54 L 1433.333 490.911 L 1414.116 490.911 L 1414.116 480.416 L 1434.832 480.416 L 1434.832 466.787 L 1424.61 466.787 C 1426.518 462.699 1428.562 457.383 1430.879 452.341 L 1425.564 450.978 L 1436.876 450.978 L 1436.876 437.349 L 1414.116 437.349 L 1414.116 427.944 Z  M 1454.049 473.329 C 1457.456 484.096 1461.817 494.046 1467.133 502.768 C 1463.317 508.084 1458.955 512.717 1454.049 516.67 L 1454.049 473.329 Z  M 1482.397 467.741 C 1480.762 475.101 1478.309 482.325 1475.174 488.866 C 1471.222 482.325 1467.951 475.237 1465.497 467.741 L 1482.397 467.741 Z  M 1489.621 454.249 L 1486.895 454.93 L 1454.049 454.93 L 1454.049 422.357 L 1481.171 422.357 L 1481.171 433.532 C 1481.171 435.032 1480.489 435.44 1478.445 435.577 C 1476.401 435.577 1468.905 435.577 1462.226 435.304 C 1464.134 439.257 1466.179 444.845 1466.86 449.206 C 1476.809 449.206 1484.169 449.07 1489.348 446.889 C 1494.664 444.708 1496.163 440.756 1496.163 433.805 L 1496.163 408.182 L 1439.329 408.182 L 1439.329 529.617 L 1454.049 529.617 L 1454.049 521.576 C 1456.911 524.166 1459.773 527.301 1461.545 530.026 C 1467.133 525.938 1472.039 521.031 1476.401 515.443 C 1481.443 521.167 1487.031 526.074 1493.437 529.89 C 1495.754 525.801 1500.388 520.077 1503.931 517.079 C 1496.844 513.535 1490.575 508.356 1484.987 502.223 C 1491.938 489.412 1496.708 474.147 1499.297 457.656 L 1489.621 454.249 Z  M 1248.522 468.832 C 1251.384 458.337 1253.565 442.119 1253.838 430.807 L 1242.389 429.307 C 1241.708 440.347 1239.663 455.612 1236.801 464.879 L 1248.522 468.832 Z  M 1300.313 498.271 L 1300.313 492.001 L 1341.064 492.001 L 1341.064 498.271 L 1300.313 498.271 Z  M 1341.064 474.147 L 1341.064 480.553 L 1300.313 480.553 L 1300.313 474.147 L 1341.064 474.147 Z  M 1356.328 462.29 L 1285.321 462.29 L 1285.321 529.89 L 1300.313 529.89 L 1300.313 509.446 L 1341.064 509.446 L 1341.064 513.944 C 1341.064 515.58 1340.382 516.125 1338.474 516.125 C 1336.702 516.125 1330.297 516.261 1324.709 515.852 C 1326.617 519.805 1328.525 525.665 1329.07 529.617 C 1338.474 529.617 1345.289 529.617 1350.059 527.301 C 1354.965 525.12 1356.328 521.304 1356.328 514.217 L 1356.328 462.29 Z  M 1328.389 445.526 L 1328.389 439.665 L 1357.691 439.665 L 1357.691 428.762 L 1328.389 428.762 L 1328.389 423.311 L 1361.371 423.311 L 1361.371 411.726 L 1328.389 411.726 L 1328.389 402.458 L 1312.306 402.458 L 1312.306 411.726 L 1280.414 411.726 L 1280.414 423.311 L 1312.306 423.311 L 1312.306 428.762 L 1284.094 428.762 L 1284.094 439.529 C 1282.459 434.486 1279.324 426.854 1276.462 420.994 L 1268.693 424.265 L 1268.693 402.458 L 1254.11 402.458 L 1254.11 529.617 L 1268.693 529.617 L 1268.693 430.534 C 1270.874 435.849 1272.782 441.574 1273.736 445.526 L 1284.367 440.347 L 1284.094 439.665 L 1312.306 439.665 L 1312.306 445.526 L 1276.189 445.526 L 1276.189 457.111 L 1365.46 457.111 L 1365.46 445.526 L 1328.389 445.526 Z  M 662.608 519.805 C 675.691 519.805 686.458 514.625 694.772 504.949 L 684.142 492.41 C 678.69 498.271 671.875 502.359 663.289 502.359 C 647.343 502.359 636.985 489.139 636.985 467.196 C 636.985 445.526 648.433 432.442 663.698 432.442 C 671.33 432.442 677.191 435.986 682.233 440.892 L 692.864 428.081 C 686.322 421.266 676.1 415.133 663.289 415.133 C 637.803 415.133 616.405 434.623 616.405 467.878 C 616.405 501.542 637.121 519.805 662.608 519.805 Z  M 745.745 519.805 C 772.458 519.805 790.857 499.77 790.857 467.06 C 790.857 434.35 772.458 415.133 745.745 415.133 C 719.032 415.133 700.633 434.214 700.633 467.06 C 700.633 499.77 719.032 519.805 745.745 519.805 Z  M 745.745 502.359 C 730.753 502.359 721.213 488.594 721.213 467.06 C 721.213 445.39 730.753 432.442 745.745 432.442 C 760.737 432.442 770.277 445.39 770.277 467.06 C 770.277 488.594 760.737 502.359 745.745 502.359 Z  M 826.702 517.896 L 850.689 517.896 L 881.627 417.041 L 861.183 417.041 L 848.099 466.106 C 844.965 477.282 842.648 487.367 839.513 498.679 L 838.832 498.679 C 835.561 487.367 833.516 477.282 830.382 466.106 L 817.025 417.041 L 795.9 417.041 L 826.702 517.896 Z  M 893.212 517.896 L 913.383 517.896 L 913.383 417.041 L 893.212 417.041 L 893.212 517.896 Z  M 938.188 517.896 L 966.945 517.896 C 996.657 517.896 1015.737 500.996 1015.737 467.06 C 1015.737 432.987 996.657 417.041 965.855 417.041 L 938.188 417.041 L 938.188 517.896 Z  M 958.359 501.678 L 958.359 433.124 L 964.628 433.124 C 983.436 433.124 995.157 442.391 995.157 467.06 C 995.157 491.592 983.436 501.678 964.628 501.678 L 958.359 501.678 Z  M 1029.775 486.004 L 1066.983 486.004 L 1066.983 471.694 L 1029.775 471.694 L 1029.775 486.004 Z  M 1084.701 517.896 L 1145.35 517.896 L 1145.35 501.678 L 1126.406 501.678 L 1126.406 417.041 L 1111.55 417.041 C 1105.144 420.994 1098.193 423.583 1088.108 425.491 L 1088.108 437.894 L 1106.371 437.894 L 1106.371 501.678 L 1084.701 501.678 L 1084.701 517.896 Z  M 1191.961 466.242 C 1183.239 466.242 1177.651 460.654 1177.651 448.797 C 1177.651 436.394 1183.784 430.261 1191.28 430.261 C 1199.866 430.261 1206.817 437.076 1208.589 455.475 C 1203.682 463.244 1197.413 466.242 1191.961 466.242 Z  M 1160.887 508.356 C 1166.884 514.489 1176.015 519.805 1188.554 519.805 C 1208.589 519.805 1227.261 503.313 1227.261 465.152 C 1227.261 430.125 1210.088 415.133 1191.007 415.133 C 1173.698 415.133 1159.252 428.081 1159.252 448.797 C 1159.252 470.195 1171.382 480.553 1188.145 480.553 C 1195.096 480.553 1203.682 476.328 1208.862 469.513 C 1208.044 494.863 1198.64 503.45 1187.328 503.45 C 1181.331 503.45 1175.061 500.315 1171.382 496.362 L 1160.887 508.356 Z " fill="rgb(70,70,70)"/></g></g><g><g><g><g><path d=" M 179.809 205.551 C 181.697 207.585 182.863 211.38 182.863 215.49 C 182.863 219.594 181.697 223.395 179.809 225.429 C 154.769 252.415 85.739 326.833 60.914 353.59 C 59.042 355.607 56.745 355.583 54.883 353.542 C 53.02 351.49 51.875 347.725 51.875 343.646 C 51.875 289.897 51.875 141.066 51.875 87.316 C 51.875 83.243 53.022 79.472 54.883 77.42 C 56.745 75.368 59.042 75.357 60.914 77.372 C 85.739 104.134 154.774 178.547 179.809 205.546 L 179.809 205.551 Z " fill-rule="evenodd" fill="rgb(251,192,45)"/><path d=" M 412.224 205.551 C 410.497 207.585 409.429 211.38 409.429 215.49 C 409.429 219.594 410.497 223.395 412.224 225.429 C 435.124 252.415 498.258 326.833 520.963 353.59 C 522.675 355.607 524.775 355.583 526.479 353.542 C 528.184 351.49 529.23 347.725 529.23 343.646 C 529.23 289.897 529.23 141.066 529.23 87.316 C 529.23 83.243 528.179 79.472 526.479 77.42 C 524.775 75.368 522.675 75.357 520.963 77.372 C 498.258 104.134 435.12 178.547 412.224 205.546 L 412.224 205.551 Z " fill-rule="evenodd" fill="rgb(251,192,45)"/><path d=" M 299.632 538.292 L 299.632 373.719 L 281.471 373.719 L 281.471 554.774 L 281.471 554.774 L 281.471 555.484 C 281.471 561.909 285.267 567.129 289.941 567.129 L 290.552 567.129 C 295.533 567.129 299.581 561.606 299.632 554.774 L 299.632 554.774 L 299.632 554.646 L 299.632 554.646 L 299.632 538.292 Z " fill-rule="evenodd" fill="rgb(136,14,79)"/><path d=" M 51.875 327.357 C 51.875 195.023 158.823 87.585 290.552 87.585 C 422.282 87.585 529.23 195.023 529.23 327.357 C 529.23 459.691 422.282 567.129 290.552 567.129 C 158.823 567.129 51.875 459.691 51.875 327.357 Z " fill-rule="evenodd" fill="rgb(236,64,122)"/></g></g></g><g><path d=" M 379.178 372.345 C 383.011 376.683 386.738 380.419 391.025 384.714 C 386.753 391.584 380.579 396.159 375.436 401.589 C 370.143 407.176 364.582 412.508 358.242 418.848 C 351.522 417.032 344.053 415.373 336.825 412.984 C 321.744 407.998 321.802 407.853 305.117 415.086 C 303.74 415.683 302.214 415.937 300.879 416.316 C 300.879 417.873 300.879 418.973 300.88 420.072 C 308.831 424.769 316.097 420.109 322.695 418.151 C 329.554 419.61 331.393 423.514 330.132 430.656 C 328.077 432.626 325.008 435.567 321.49 438.939 C 319.544 437.811 317.781 436.79 315.055 435.211 C 314.605 436.563 313.915 438.641 313.223 440.721 C 312.476 440.174 311.729 439.628 310.982 439.081 L 310.982 455.863 C 308.787 458.253 307.307 459.865 305.079 462.292 C 296.955 458.563 288.649 454.748 280.42 450.97 C 277.239 453.723 274.47 456.119 271.537 458.657 C 264.849 454.703 260.231 450.085 260.947 441.641 L 245.535 441.641 C 245.122 439.658 244.81 438.155 244.346 435.924 C 231.704 431.731 224.233 440.551 216.655 448.114 C 205.399 448.847 199.468 440.512 193.114 434.525 C 191.082 435.276 190.041 435.49 189.198 436.019 C 188.315 436.572 187.623 437.429 186.962 438.045 C 179.414 427.721 177.919 415.184 175.682 403.248 C 173.58 392.037 168.162 381.848 167.564 370.008 C 167.287 364.49 165.929 360.092 167.982 354.057 C 170.321 347.186 168.523 338.908 168.523 330.678 C 163.38 325.782 157.826 320.496 152.826 315.737 C 151.214 306.243 151.602 297.547 155.755 290.073 C 160.507 281.525 159.236 274.145 154.175 266.887 C 150.634 261.807 151.713 257.999 156.762 253.822 L 171.377 253.822 C 178.03 250.448 182.576 248.142 187.955 245.414 L 187.955 231.626 C 189.867 231.032 191.278 230.267 192.723 230.199 C 201.129 229.796 209.971 232.146 218.22 224.137 C 218.813 222.791 220.246 219.535 221.656 216.334 C 220.285 214.093 218.965 211.934 218.193 210.674 C 225.663 199.824 232.467 189.942 238.824 180.708 C 261.149 183.427 271.941 200.606 285.922 213.46 C 291.165 213.61 295.662 213.645 300.676 209.47 C 309.697 201.955 320.358 196.41 330.391 190.004 C 339.596 195.459 348.402 200.678 358.344 206.572 C 366.602 215.256 361.197 232.368 376.759 240.176 C 394.353 240.008 409.756 226.067 429.161 223.228 L 429.161 238.743 C 426.933 240.05 422.981 240.968 421.846 243.273 C 416.387 254.367 406.182 261.019 398.251 269.754 C 389.024 279.918 386.947 286.19 393.845 297.738 C 397.442 303.759 395.72 309.043 396.646 314.251 C 393.435 318.978 390.507 323.29 386.532 329.14 C 387.58 346.593 399.684 358.904 412.774 371.048 C 409.585 377.362 409.585 377.362 401.401 378.923 C 399.646 376.704 397.62 374.14 396.064 372.171 C 390.047 372.171 385.096 372.171 379.178 372.345 C 380.062 372.303 380.277 372.088 380.492 371.873 C 379.725 370.974 378.957 370.073 378.189 369.175 C 377.843 369.521 377.495 369.868 377.148 370.216 C 378.047 370.983 378.947 371.751 379.178 372.345 Z " fill="rgb(255,255,255)"/></g></g></g></svg>
