<?xml version="1.0" encoding="UTF-8" standalone="no"?><!-- Generator: Gravit.io --><svg xmlns="http://www.w3.org/2000/svg" xmlns:xlink="http://www.w3.org/1999/xlink" style="isolation:isolate" viewBox="0 0 1600 643" width="1600pt" height="643pt"><defs><clipPath id="_clipPath_UAwU2XK0mQMyibBMp9dena55nOuer15y"><rect width="1600" height="643"/></clipPath></defs><g clip-path="url(#_clipPath_UAwU2XK0mQMyibBMp9dena55nOuer15y)"><clipPath id="_clipPath_mf3eMSTF0iSkOrwcxYXtTRXN9V4Z8OIl"><rect x="0" y="0" width="1600" height="643" transform="matrix(1,0,0,1,0,0)" fill="rgb(255,255,255)"/></clipPath><g clip-path="url(#_clipPath_mf3eMSTF0iSkOrwcxYXtTRXN9V4Z8OIl)"><g><text transform="matrix(1.042,0,0,0.994,609.045,326.852)" style="font-family:'Noto Sans CJK SC';font-weight:700;font-size:250px;font-style:normal;font-variant-ligatures:none;fill:[Object GCMYKColor];stroke:none;">岡山県</text><text transform="matrix(1.136,0,0,1.136,609.045,517.896)" style="font-family:'Noto Sans CJK JP';font-weight:700;font-size:120px;font-style:normal;font-variant-ligatures:none;fill:#464646;stroke:none;">COVID-19情報</text></g></g><g><g><g><g><path d=" M 179.809 205.551 C 181.697 207.585 182.863 211.38 182.863 215.49 C 182.863 219.594 181.697 223.395 179.809 225.429 C 154.769 252.415 85.739 326.833 60.914 353.59 C 59.042 355.607 56.745 355.583 54.883 353.542 C 53.02 351.49 51.875 347.725 51.875 343.646 C 51.875 289.897 51.875 141.066 51.875 87.316 C 51.875 83.243 53.022 79.472 54.883 77.42 C 56.745 75.368 59.042 75.357 60.914 77.372 C 85.739 104.134 154.774 178.547 179.809 205.546 L 179.809 205.551 Z " fill-rule="evenodd" fill="rgb(251,192,45)"/><path d=" M 412.224 205.551 C 410.497 207.585 409.429 211.38 409.429 215.49 C 409.429 219.594 410.497 223.395 412.224 225.429 C 435.124 252.415 498.258 326.833 520.963 353.59 C 522.675 355.607 524.775 355.583 526.479 353.542 C 528.184 351.49 529.23 347.725 529.23 343.646 C 529.23 289.897 529.23 141.066 529.23 87.316 C 529.23 83.243 528.179 79.472 526.479 77.42 C 524.775 75.368 522.675 75.357 520.963 77.372 C 498.258 104.134 435.12 178.547 412.224 205.546 L 412.224 205.551 Z " fill-rule="evenodd" fill="rgb(251,192,45)"/><path d=" M 299.632 538.292 L 299.632 373.719 L 281.471 373.719 L 281.471 554.774 L 281.471 554.774 L 281.471 555.484 C 281.471 561.909 285.267 567.129 289.941 567.129 L 290.552 567.129 C 295.533 567.129 299.581 561.606 299.632 554.774 L 299.632 554.774 L 299.632 554.646 L 299.632 554.646 L 299.632 538.292 Z " fill-rule="evenodd" fill="rgb(136,14,79)"/><path d=" M 51.875 327.357 C 51.875 195.023 158.823 87.585 290.552 87.585 C 422.282 87.585 529.23 195.023 529.23 327.357 C 529.23 459.691 422.282 567.129 290.552 567.129 C 158.823 567.129 51.875 459.691 51.875 327.357 Z " fill-rule="evenodd" fill="rgb(236,64,122)"/></g></g></g><g><path d=" M 379.178 372.345 C 383.011 376.683 386.738 380.419 391.025 384.714 C 386.753 391.584 380.579 396.159 375.436 401.589 C 370.143 407.176 364.582 412.508 358.242 418.848 C 351.522 417.032 344.053 415.373 336.825 412.984 C 321.744 407.998 321.802 407.853 305.117 415.086 C 303.74 415.683 302.214 415.937 300.879 416.316 C 300.879 417.873 300.879 418.973 300.88 420.072 C 308.831 424.769 316.097 420.109 322.695 418.151 C 329.554 419.61 331.393 423.514 330.132 430.656 C 328.077 432.626 325.008 435.567 321.49 438.939 C 319.544 437.811 317.781 436.79 315.055 435.211 C 314.605 436.563 313.915 438.641 313.223 440.721 C 312.476 440.174 311.729 439.628 310.982 439.081 L 310.982 455.863 C 308.787 458.253 307.307 459.865 305.079 462.292 C 296.955 458.563 288.649 454.748 280.42 450.97 C 277.239 453.723 274.47 456.119 271.537 458.657 C 264.849 454.703 260.231 450.085 260.947 441.641 L 245.535 441.641 C 245.122 439.658 244.81 438.155 244.346 435.924 C 231.704 431.731 224.233 440.551 216.655 448.114 C 205.399 448.847 199.468 440.512 193.114 434.525 C 191.082 435.276 190.041 435.49 189.198 436.019 C 188.315 436.572 187.623 437.429 186.962 438.045 C 179.414 427.721 177.919 415.184 175.682 403.248 C 173.58 392.037 168.162 381.848 167.564 370.008 C 167.287 364.49 165.929 360.092 167.982 354.057 C 170.321 347.186 168.523 338.908 168.523 330.678 C 163.38 325.782 157.826 320.496 152.826 315.737 C 151.214 306.243 151.602 297.547 155.755 290.073 C 160.507 281.525 159.236 274.145 154.175 266.887 C 150.634 261.807 151.713 257.999 156.762 253.822 L 171.377 253.822 C 178.03 250.448 182.576 248.142 187.955 245.414 L 187.955 231.626 C 189.867 231.032 191.278 230.267 192.723 230.199 C 201.129 229.796 209.971 232.146 218.22 224.137 C 218.813 222.791 220.246 219.535 221.656 216.334 C 220.285 214.093 218.965 211.934 218.193 210.674 C 225.663 199.824 232.467 189.942 238.824 180.708 C 261.149 183.427 271.941 200.606 285.922 213.46 C 291.165 213.61 295.662 213.645 300.676 209.47 C 309.697 201.955 320.358 196.41 330.391 190.004 C 339.596 195.459 348.402 200.678 358.344 206.572 C 366.602 215.256 361.197 232.368 376.759 240.176 C 394.353 240.008 409.756 226.067 429.161 223.228 L 429.161 238.743 C 426.933 240.05 422.981 240.968 421.846 243.273 C 416.387 254.367 406.182 261.019 398.251 269.754 C 389.024 279.918 386.947 286.19 393.845 297.738 C 397.442 303.759 395.72 309.043 396.646 314.251 C 393.435 318.978 390.507 323.29 386.532 329.14 C 387.58 346.593 399.684 358.904 412.774 371.048 C 409.585 377.362 409.585 377.362 401.401 378.923 C 399.646 376.704 397.62 374.14 396.064 372.171 C 390.047 372.171 385.096 372.171 379.178 372.345 C 380.062 372.303 380.277 372.088 380.492 371.873 C 379.725 370.974 378.957 370.073 378.189 369.175 C 377.843 369.521 377.495 369.868 377.148 370.216 C 378.047 370.983 378.947 371.751 379.178 372.345 Z " fill="rgb(255,255,255)"/></g></g></g></svg>
